<svg xmlns="http://www.w3.org/2000/svg" viewBox="0 0 2303.92 388.19"><defs><style>.cls-1{fill:#424242;}</style></defs><g id="Layer_2" data-name="Layer 2"><g id="Layer_1-2" data-name="Layer 1"><path class="cls-1" d="M57.15,298.68q19.23,24.78,38.45,49.55l-4.15,31.42H57.15Z"/><path class="cls-1" d="M67.15,185.08q37.35-30,67.27-54.88L120.87,232.72,67.15,193.1Z"/><path class="cls-1" d="M149.12,0,138.65,79.2q-31.79,21.27-71.5,48.62V0Z"/><path class="cls-1" d="M216,0V28.54q-17.53,11.2-41.63,27L181.72,0Z"/><path class="cls-1" d="M171.09,99.4Q197.48,77,216,60.6V302.87l-65.43-48.25Z"/><polygon class="cls-1" points="172.26 365.56 252.01 365.56 252.01 379.65 170.05 379.65 172.26 365.56"/><path class="cls-1" d="M66.88,189.36,288.2,352.57H118.62L0,199.71C166.48,81.65,254.77,29.34,254.77,29.34S195.16,86.69,66.88,189.36Z"/><path class="cls-1" d="M416.83,46.62h46.84L383.16,317.54H332.07Zm-39.09,168H523.66v43.35H377.74Zm107.6-168,85.54,270.92H520.17L438.51,46.62Z"/><path class="cls-1" d="M605.49,52.64H650v264.9h-44.5Z"/><path class="cls-1" d="M695.2,388.19V119.75h44.51V388.19Zm104.55-65q-21.9,0-36.73-8.48a62.28,62.28,0,0,1-23.31-23V146.24a66.13,66.13,0,0,1,24-23.66q14.84-8.49,36-8.48,27.9,0,47.68,13.42T878,164.61q10.77,23.67,10.77,54.39,0,30.38-10.77,54T847.43,310Q827.65,323.19,799.75,323.2Zm-7.06-39.92q16.23,0,27.55-8.3t17.13-23q5.82-14.64,5.83-33,0-18.72-5.83-33.55t-17.13-23.14q-11.31-8.3-27.55-8.3-18,0-29.67,8.65A52.52,52.52,0,0,0,745.53,186q-5.82,14.66-5.82,33a87.82,87.82,0,0,0,5.82,32.67A51.23,51.23,0,0,0,763,274.81Q774.68,283.28,792.69,283.28Z"/><path class="cls-1" d="M925.85,52.64h44.5v264.9h-44.5Zm44.5,167.42-5.65-39.91a85.45,85.45,0,0,1,2.82-20.49,62.76,62.76,0,0,1,10.42-21.72q7.59-10.41,21.19-17.13t35.15-6.71q19.07,0,33.91,7.77t23.48,25.61q8.65,17.84,8.66,48.21V317.54h-44.51V200.28a110.25,110.25,0,0,0-2.47-24.55q-2.47-10.77-9.71-16.95t-21.37-6.18a47.56,47.56,0,0,0-24.37,7.06q-12,7.08-19.78,21.9T970.35,220.06Z"/><path class="cls-1" d="M1134.24,192.86a75.05,75.05,0,0,1,10.41-38.14q10.42-18,30.2-29.32t47.69-11.3q38.49,0,59.51,21.37t23.84,58.45h-43.8q-1.41-18-9.88-28.61t-29.67-10.59q-15.9,0-25.08,5.3a29.2,29.2,0,0,0-12.89,14.12,47.74,47.74,0,0,0-3.71,18.72ZM1207.7,323.2q-19.42,0-34.61-7.24a57.06,57.06,0,0,1-24-21q-8.83-13.77-8.83-33.56,0-22.95,11.13-36.38t29.31-20.13a159.81,159.81,0,0,1,39.56-8.83q21.36-2.11,41.85-2.12v37.44q-39.55-1.05-57.57,6.18t-18,22.43q0,12.38,8.48,17.84t21.89,5.47a57.25,57.25,0,0,0,21.73-4.23,36.89,36.89,0,0,0,17-14q6.54-9.7,6.53-25.6V215.12h44.16V317.54h-44.16V297.06a56.94,56.94,0,0,1-22.78,19.25A71.9,71.9,0,0,1,1207.7,323.2Z"/><path class="cls-1" d="M1577.38,83.58q-14.52-19.53-41-28.25t-62.5-8.71h-91.73V317.54h49.54V225.82h42.19q36,0,62.5-8.9t41-28.65q14.5-19.72,14.51-52.25Q1591.89,103.14,1577.38,83.58Zm-44.9,81.47q-7.93,10.06-22.83,13.74t-35.8,3.68h-42.19V89.58h42.19q20.89,0,35.8,3.68T1532.48,107q7.93,10.06,7.94,29T1532.48,165.05Z"/><path class="cls-1" d="M1747.19,217.23l5.65,39.92a84.86,84.86,0,0,1-2.83,20.48,62.24,62.24,0,0,1-10.42,21.72q-7.59,10.42-21.19,17.13t-35.14,6.72q-19.08,0-33.91-7.77t-23.49-25.79q-8.65-18-8.65-48V119.75h44.15V237a110.12,110.12,0,0,0,2.47,24.55q2.48,10.79,9.89,17t21.55,6.18a47.5,47.5,0,0,0,24.37-7.07q12-7.06,19.78-22.07T1747.19,217.23Zm44.5,100.31h-44.5V119.75h44.5Z"/><path class="cls-1" d="M1836.2,52.64h44.5v264.9h-44.5Z"/><path class="cls-1" d="M1964.76,255q1.77,15.89,13.78,23.13t28.61,7.24q15.88,0,26.13-6t10.25-19.07a13.43,13.43,0,0,0-6.71-12,59.37,59.37,0,0,0-17.31-6.89q-10.59-2.66-23.49-4.77t-25.78-5.47a95.84,95.84,0,0,1-23.67-9.54,47.71,47.71,0,0,1-17.3-17q-6.54-10.77-6.54-27.73,0-15.9,10.24-30.38t28.79-23.48q18.54-9,42.56-9a91.47,91.47,0,0,1,39.74,8.65,74.86,74.86,0,0,1,29.14,23.84q10.93,15.19,11,35.32H2040.7Q2039.29,166,2028.52,159t-25.61-7.07q-18,0-27,7.07t-9,18a15.45,15.45,0,0,0,6.54,13.24q6.52,4.77,17.3,7.42t23.67,4.77q12.88,2.11,25.78,5.3a92.25,92.25,0,0,1,23.49,9.18,47.81,47.81,0,0,1,17.13,16.43q6.52,10.41,6.53,27,0,18.72-10.06,32.84t-28.43,22.08q-18.37,8-43.45,7.95-23.31,0-42.38-9t-30.56-24.37A60.47,60.47,0,0,1,1920.26,255Z"/><path class="cls-1" d="M2158.32,233.48V197.1h116.2l-15.89,10.24a53.8,53.8,0,0,0-3.36-25.6,44.3,44.3,0,0,0-15.36-20q-10.6-7.75-27.55-7.77-23,0-38.5,14.48t-15.54,41.68h-47q2.11-30.73,16.07-52.1a93.25,93.25,0,0,1,36-32.67q22.07-11.3,48.92-11.3a92.25,92.25,0,0,1,38,8,84.59,84.59,0,0,1,30.73,23.31q12.89,15.36,19.07,37.61t2.29,50.51Zm54,89.72q-27.92,0-49.45-11.31a90.68,90.68,0,0,1-34.61-31.43q-13.08-20.13-16.25-47h46.27q2.82,21.9,15.89,35.85t38.15,13.95q17.66,0,28.43-8.3a46.18,46.18,0,0,0,15.37-20.31h46.62a83.15,83.15,0,0,1-16.6,35.85,85.1,85.1,0,0,1-31.08,24Q2236.37,323.2,2212.36,323.2Z"/></g></g></svg>